# xmcd
#
# Track frame offsets: 
#        150
#        28618
#        47833
#        70830
#        96409
#        116550
#        147939
#        166015
#        203796
#        227015
#
# Disc length: 3421 seconds
#
# Revision: 0
# Processed by: cddbd v1.5.1PL2 Copyright (c) Steve Scherf et al.
# Submitted via: ExactAudioCopy v0.95b3
#
DISCID=850d5b0a
DTITLE=Sweet Papa Lowdown - One of Your Smiles
DYEAR=2003
DGENRE=Blues
TTITLE0=Apex Blues
TTITLE1=Shake It 'n Break It
TTITLE2=Black Cat Hoot Owl Blues
TTITLE3=One of Your Smiles
TTITLE4=Make Me a Pallet on the Floor
TTITLE5='Til Times Get Better
TTITLE6=Mean Daddy Blues
TTITLE7=Buggy Whippin' Mama
TTITLE8=Diddy Wa Diddy
TTITLE9=Why Cry Blues
EXTD=
EXTT0=
EXTT1=
EXTT2=
EXTT3=
EXTT4=
EXTT5=
EXTT6=
EXTT7=
EXTT8=
EXTT9=
PLAYORDER=
